<?xml version="1.0" encoding="UTF-8" standalone="no"?>
<svg
   xmlns:dc="http://purl.org/dc/elements/1.1/"
   xmlns:cc="http://creativecommons.org/ns#"
   xmlns:rdf="http://www.w3.org/1999/02/22-rdf-syntax-ns#"
   xmlns:svg="http://www.w3.org/2000/svg"
   xmlns="http://www.w3.org/2000/svg"
   xmlns:sodipodi="http://sodipodi.sourceforge.net/DTD/sodipodi-0.dtd"
   xmlns:inkscape="http://www.inkscape.org/namespaces/inkscape"
   width="210mm"
   height="297mm"
   viewBox="0 0 210 297"
   version="1.1"
   id="svg8"
   inkscape:version="1.0.1 (3bc2e813f5, 2020-09-07)"
   sodipodi:docname="listeners.svg">
  <defs
     id="defs2" />
  <sodipodi:namedview
     id="base"
     pagecolor="#ffffff"
     bordercolor="#666666"
     borderopacity="1.0"
     inkscape:pageopacity="0.0"
     inkscape:pageshadow="2"
     inkscape:zoom="0.97788086"
     inkscape:cx="346.4719"
     inkscape:cy="502.94527"
     inkscape:document-units="mm"
     inkscape:current-layer="layer1"
     inkscape:document-rotation="0"
     showgrid="false"
     inkscape:window-width="1366"
     inkscape:window-height="704"
     inkscape:window-x="0"
     inkscape:window-y="27"
     inkscape:window-maximized="1" />
  <metadata
     id="metadata5">
    <rdf:RDF>
      <cc:Work
         rdf:about="">
        <dc:format>image/svg+xml</dc:format>
        <dc:type
           rdf:resource="http://purl.org/dc/dcmitype/StillImage" />
        <dc:title></dc:title>
      </cc:Work>
    </rdf:RDF>
  </metadata>
  <g
     inkscape:label="Слой 1"
     inkscape:groupmode="layer"
     id="layer1">
    <rect
       style="fill:none;stroke:#000000;stroke-width:1.365"
       id="rect833"
       width="52.032005"
       height="47.968994"
       x="26.570475"
       y="49.20879" />
    <text
       xml:space="preserve"
       style="font-size:7.05556px;line-height:1.25;font-family:sans-serif;letter-spacing:0px;word-spacing:0px;stroke-width:0.264583"
       x="34.037151"
       y="72.273933"
       id="text837"><tspan
         sodipodi:role="line"
         id="tspan835"
         x="34.037151"
         y="72.273933"
         style="font-size:7.05556px;stroke-width:0.264583">источник</tspan><tspan
         sodipodi:role="line"
         x="34.037151"
         y="81.093384"
         style="font-size:7.05556px;stroke-width:0.264583"
         id="tspan839">событий</tspan></text>
    <ellipse
       style="fill:none;stroke:#000000;stroke-width:1.365"
       id="path841"
       cx="105.10352"
       cy="87.618546"
       rx="7.4722548"
       ry="7.4526854" />
    <ellipse
       style="fill:none;stroke:#000000;stroke-width:1.365"
       id="path843"
       cx="106.64826"
       cy="111.03997"
       rx="7.1676054"
       ry="7.6294527" />
    <ellipse
       style="fill:none;stroke:#000000;stroke-width:1.365"
       id="path845"
       cx="107.59562"
       cy="135.04851"
       rx="8.4739332"
       ry="7.6240573" />
    <text
       xml:space="preserve"
       style="font-size:7.05556px;line-height:1.25;font-family:sans-serif;letter-spacing:0px;word-spacing:0px;stroke-width:0.264583"
       x="117.91393"
       y="90.263145"
       id="text849"><tspan
         sodipodi:role="line"
         x="117.91393"
         y="90.263145"
         style="font-size:7.05556px;stroke-width:0.264583"
         id="tspan851">событие 1</tspan></text>
    <text
       xml:space="preserve"
       style="font-size:14.1111px;line-height:1.25;font-family:sans-serif;letter-spacing:0px;word-spacing:0px;stroke-width:0.264583"
       x="117.69673"
       y="112.50125"
       id="text857"><tspan
         sodipodi:role="line"
         id="tspan855"
         x="117.69673"
         y="112.50125"
         style="stroke-width:0.264583"></tspan></text>
    <text
       xml:space="preserve"
       style="font-size:7.05556px;line-height:1.25;font-family:sans-serif;letter-spacing:0px;word-spacing:0px;stroke-width:0.264583"
       x="118.04105"
       y="113.36967"
       id="text849-3"><tspan
         sodipodi:role="line"
         x="118.04105"
         y="113.36967"
         style="font-size:7.05556px;stroke-width:0.264583"
         id="tspan851-6">событие 2</tspan></text>
    <text
       xml:space="preserve"
       style="font-size:7.05556px;line-height:1.25;font-family:sans-serif;letter-spacing:0px;word-spacing:0px;stroke-width:0.264583"
       x="120.43778"
       y="137.60095"
       id="text849-7"><tspan
         sodipodi:role="line"
         x="120.43778"
         y="137.60095"
         style="font-size:7.05556px;stroke-width:0.264583"
         id="tspan851-5">событие 3</tspan></text>
    <rect
       style="fill:none;stroke:#000000;stroke-width:1.36499"
       id="rect885-3"
       width="55.672653"
       height="21.145859"
       x="96.624985"
       y="170.16653" />
    <g
       id="g923"
       transform="translate(5.1611635,5.4503843)">
      <rect
         style="fill:none;stroke:#000000;stroke-width:1.36499"
         id="rect885"
         width="55.672649"
         height="21.145859"
         x="18.851273"
         y="164.1488" />
      <text
         xml:space="preserve"
         style="font-size:7.05556px;line-height:1.25;font-family:sans-serif;letter-spacing:0px;word-spacing:0px;stroke-width:0.264583"
         x="21.427792"
         y="171.83536"
         id="text891"><tspan
           sodipodi:role="line"
           id="tspan889"
           x="21.427792"
           y="171.83536"
           style="font-size:7.05556px;stroke-width:0.264583">слушатель 1</tspan><tspan
           sodipodi:role="line"
           x="21.427792"
           y="180.6548"
           style="font-size:7.05556px;stroke-width:0.264583"
           id="tspan893">/ обработчик</tspan></text>
    </g>
    <text
       xml:space="preserve"
       style="font-size:7.05556px;line-height:1.25;font-family:sans-serif;letter-spacing:0px;word-spacing:0px;stroke-width:0.264583"
       x="100.03507"
       y="177.96246"
       id="text891-5"><tspan
         sodipodi:role="line"
         id="tspan889-6"
         x="100.03507"
         y="177.96246"
         style="font-size:7.05556px;stroke-width:0.264583">слушатель 2</tspan><tspan
         sodipodi:role="line"
         x="100.03507"
         y="186.78191"
         style="font-size:7.05556px;stroke-width:0.264583"
         id="tspan893-2">/ обработчик</tspan></text>
    <path
       style="fill:none;stroke:#000000;stroke-width:0.264583px;stroke-linecap:butt;stroke-linejoin:miter;stroke-opacity:1"
       d="m 78.922675,73.181045 c 21.015743,7.474932 21.670525,8.538041 21.670525,8.538041"
       id="path925" />
    <path
       style="fill:none;stroke:#000000;stroke-width:0.264583px;stroke-linecap:butt;stroke-linejoin:miter;stroke-opacity:1"
       d="m 104.77089,95.078853 c 1.76894,2.216227 3.94346,4.995147 1.91588,7.546777"
       id="path927" />
    <path
       style="fill:none;stroke:#000000;stroke-width:0.264583px;stroke-linecap:butt;stroke-linejoin:miter;stroke-opacity:1"
       d="m 107.75391,119.08542 c 0.48778,7.87127 0.65967,4.85728 0.2985,9.05176"
       id="path929" />
    <path
       style="fill:none;stroke:#000000;stroke-width:0.264583px;stroke-linecap:butt;stroke-linejoin:miter;stroke-opacity:1"
       d="m 103.33165,140.70288 c -1.90261,1.79536 -1.45993,1.62225 -4.954117,2.85526 -4.559546,1.60894 -9.199931,2.98248 -13.83669,4.35312 -1.333611,0.39422 -2.710876,0.64763 -4.018746,1.12029 -5.77955,2.08869 -12.116665,5.88841 -17.261125,9.32355 -1.55816,1.04044 -4.21803,2.419 -5.595723,4.00103 -2.309352,2.65187 -2.342957,6.79788 -3.764397,9.89053 -0.143777,0.31282 -0.450466,-0.51268 -0.450466,-1.86957 0,-1.53227 0.377788,-2.97579 0.406958,-4.48115 0.0097,-0.50067 -0.119263,-1.99775 -0.125695,-1.49702 -0.003,0.23322 -0.03133,5.26398 0.339926,5.3195 2.644042,0.39542 8.798314,-3.9332 11.129597,-5.24907 0.55947,-0.31579 1.358061,-0.89077 1.945296,-1.02048"
       id="path931" />
    <path
       style="fill:none;stroke:#000000;stroke-width:0.264583px;stroke-linecap:butt;stroke-linejoin:miter;stroke-opacity:1"
       d="m 110.79843,140.78568 10.28923,29.1202"
       id="path933" />
    <path
       style="fill:none;stroke:#000000;stroke-width:0.264583px;stroke-linecap:butt;stroke-linejoin:miter;stroke-opacity:1"
       d="m 114.90138,163.90762 c 1.67383,1.5437 3.42877,3.00385 5.02149,4.6311 0.4797,0.4901 0.81461,1.1059 1.16866,1.69323 0.0731,0.12134 0.12141,0.55308 0.10095,0.41289 -0.0359,-0.24618 -0.0699,-0.49264 -0.10482,-0.73896 0.10529,-2.66235 0.80321,-5.10185 0.85076,-7.70462 0.0139,-0.75816 -0.28108,-2.92713 0.10175,-2.27258 0.11148,0.1906 0.79474,4.90594 0.585,3.56916"
       id="path935" />
    <path
       style="fill:none;stroke:#000000;stroke-width:0.264583px;stroke-linecap:butt;stroke-linejoin:miter;stroke-opacity:1"
       d="m 36.075551,168.30767 c 0.615735,-5.64949 -0.210796,-11.27338 -0.864794,-16.88743 -0.852887,-7.32138 -1.787249,-14.12015 -4.121131,-21.13394 -1.871742,-5.62497 -5.009921,-11.84498 -3.207165,-17.93607 1.405234,-4.74796 3.516741,-9.87172 5.811864,-14.335372 1.540171,-2.995393 0.92361,-0.772496 1.831324,-3.456885 0.487563,-1.441873 0.558159,-2.518656 0.558159,-1.948929 0,0.333868 -0.459073,3.677129 -0.553032,3.834789"
       id="path937" />
    <text
       xml:space="preserve"
       style="font-size:14.1111px;line-height:1.25;font-family:sans-serif;letter-spacing:0px;word-spacing:0px;stroke-width:0.264583"
       x="15.579693"
       y="120.13159"
       id="text943"><tspan
         sodipodi:role="line"
         id="tspan941"
         x="15.579693"
         y="120.13159"
         style="stroke-width:0.264583" /></text>
    <text
       xml:space="preserve"
       style="font-size:7.05556px;line-height:1.25;font-family:sans-serif;letter-spacing:0px;word-spacing:0px;stroke-width:0.264583"
       x="11.908041"
       y="126.32973"
       id="text947"><tspan
         sodipodi:role="line"
         id="tspan945"
         x="11.908041"
         y="126.32973"
         style="stroke-width:0.264583">регистрация</tspan><tspan
         sodipodi:role="line"
         x="11.908041"
         y="135.14917"
         style="stroke-width:0.264583"
         id="tspan949">на события</tspan></text>
    <path
       style="fill:none;stroke:#000000;stroke-width:0.264583px;stroke-linecap:butt;stroke-linejoin:miter;stroke-opacity:1"
       d="m 109.25528,170.93149 c -0.13497,-0.65768 -0.082,-1.38439 -0.40492,-1.97303 -0.56482,-1.02966 -3.3198,-4.00663 -4.17135,-4.99329 -0.82933,-0.96091 -3.80692,-4.51307 -4.52745,-5.44139 -2.130249,-2.7446 -2.759936,-3.95502 -4.766931,-7.22792 -1.211249,-1.97524 -2.404057,-4.19018 -4.23205,-5.7164 -8.391064,-7.00585 -18.742757,-12.0631 -29.657317,-13.6035 -4.45311,-0.62847 -8.908439,0.17669 -13.327986,0.64017 -2.406896,0.25241 -4.504169,-0.13529 -6.663994,0.096 -2.128554,0.22797 -6.234951,1.61093 -7.569086,1.38326"
       id="path951" />
  </g>
</svg>
